# MagicaVoxel @ Ephtracy

# group
g candyCane

# material
mtllib candyCane.mtl
usemtl palette

# normals
vn -1 0 0
vn 1 0 0
vn 0 0 1
vn 0 0 -1
vn 0 -1 0
vn 0 1 0

# texcoords
vt 0.00195313 0.5
vt 0.0566406 0.5
vt 0.916016 0.5

# verts
v 3 0 3
v 3 0 2
v 3 0 1
v 3 1 2
v 3 1 1
v 3 2 3
v 3 2 2
v 3 3 3
v 3 3 2
v 3 3 1
v 3 4 3
v 3 4 2
v 3 4 1
v 3 5 2
v 3 5 1
v 3 6 3
v 3 6 2
v 3 7 2
v 3 7 1
v 3 8 3
v 3 8 2
v 3 9 2
v 3 9 1
v 3 10 3
v 3 10 2
v 3 11 2
v 3 11 1
v 3 12 3
v 3 12 2
v 3 13 2
v 3 13 1
v 3 14 3
v 3 14 2
v 3 15 2
v 3 15 1
v 3 16 3
v 3 16 2
v 3 17 2
v 3 17 1
v 3 18 3
v 3 18 2
v 3 19 3
v 3 19 2
v 3 19 1
v 4 19 3
v 4 19 2
v 4 19 1
v 4 20 3
v 4 20 1
v 5 20 3
v 5 20 1
v 5 21 3
v 5 21 1
v 7 19 3
v 7 19 1
v 7 20 3
v 7 20 1
v 8 16 3
v 8 16 1
v 8 17 3
v 8 17 1
v 8 18 3
v 8 18 1
v 8 19 3
v 8 19 1
v 4 0 3
v 4 0 2
v 4 0 1
v 4 1 2
v 4 1 1
v 4 2 3
v 4 2 2
v 4 3 3
v 4 3 2
v 4 3 1
v 4 4 3
v 4 4 2
v 4 4 1
v 4 5 2
v 4 5 1
v 4 6 3
v 4 6 2
v 4 7 2
v 4 7 1
v 4 8 3
v 4 8 2
v 4 9 2
v 4 9 1
v 4 10 3
v 4 10 2
v 4 11 2
v 4 11 1
v 4 12 3
v 4 12 2
v 4 13 2
v 4 13 1
v 4 14 3
v 4 14 2
v 4 15 2
v 4 15 1
v 4 16 3
v 4 16 2
v 4 17 2
v 4 17 1
v 4 18 3
v 4 18 1
v 5 18 3
v 5 18 1
v 5 19 3
v 5 19 2
v 5 19 1
v 6 19 3
v 6 19 2
v 6 19 1
v 6 20 3
v 6 20 2
v 6 20 1
v 8 20 3
v 8 20 1
v 8 21 3
v 8 21 1
v 9 16 3
v 9 16 1
v 9 17 3
v 9 17 1
v 9 18 3
v 9 18 1
v 9 19 3
v 9 19 1
v 9 20 3
v 9 20 1
v 3 0 3
v 3 2 3
v 3 3 3
v 3 4 3
v 3 6 3
v 3 8 3
v 3 10 3
v 3 12 3
v 3 14 3
v 3 16 3
v 3 18 3
v 3 19 3
v 4 0 3
v 4 2 3
v 4 3 3
v 4 4 3
v 4 6 3
v 4 8 3
v 4 10 3
v 4 12 3
v 4 14 3
v 4 16 3
v 4 18 3
v 4 19 3
v 4 20 3
v 5 18 3
v 5 19 3
v 5 20 3
v 5 21 3
v 6 19 3
v 6 20 3
v 6 21 3
v 7 19 3
v 7 20 3
v 7 21 3
v 8 16 3
v 8 17 3
v 8 18 3
v 8 19 3
v 8 20 3
v 8 21 3
v 9 16 3
v 9 17 3
v 9 18 3
v 9 19 3
v 9 20 3
v 3 0 1
v 3 1 1
v 3 3 1
v 3 4 1
v 3 5 1
v 3 7 1
v 3 9 1
v 3 11 1
v 3 13 1
v 3 15 1
v 3 17 1
v 3 19 1
v 4 0 1
v 4 1 1
v 4 3 1
v 4 4 1
v 4 5 1
v 4 7 1
v 4 9 1
v 4 11 1
v 4 13 1
v 4 15 1
v 4 17 1
v 4 18 1
v 4 19 1
v 4 20 1
v 5 18 1
v 5 19 1
v 5 20 1
v 5 21 1
v 6 19 1
v 6 20 1
v 6 21 1
v 7 19 1
v 7 20 1
v 7 21 1
v 8 16 1
v 8 17 1
v 8 18 1
v 8 19 1
v 8 20 1
v 8 21 1
v 9 16 1
v 9 17 1
v 9 18 1
v 9 19 1
v 9 20 1
v 3 0 3
v 4 0 3
v 3 0 2
v 4 0 2
v 3 0 1
v 4 0 1
v 8 16 3
v 9 16 3
v 8 16 1
v 9 16 1
v 4 18 3
v 5 18 3
v 4 18 1
v 5 18 1
v 5 19 3
v 6 19 3
v 7 19 3
v 8 19 3
v 5 19 2
v 6 19 2
v 5 19 1
v 6 19 1
v 7 19 1
v 8 19 1
v 6 20 3
v 7 20 3
v 6 20 2
v 6 20 1
v 7 20 1
v 3 19 3
v 4 19 3
v 3 19 2
v 4 19 2
v 3 19 1
v 4 19 1
v 4 20 3
v 5 20 3
v 8 20 3
v 9 20 3
v 4 20 1
v 5 20 1
v 8 20 1
v 9 20 1
v 5 21 3
v 6 21 3
v 7 21 3
v 8 21 3
v 5 21 1
v 6 21 1
v 7 21 1
v 8 21 1

# faces
f 4/2/1 2/2/1 1/2/1
f 4/1/1 3/1/1 2/1/1
f 5/1/1 3/1/1 4/1/1
f 6/2/1 4/2/1 1/2/1
f 6/2/1 5/2/1 4/2/1
f 7/2/1 5/2/1 6/2/1
f 8/3/1 7/3/1 6/3/1
f 9/2/1 5/2/1 7/2/1
f 9/3/1 7/3/1 8/3/1
f 10/2/1 5/2/1 9/2/1
f 11/1/1 9/1/1 8/1/1
f 12/3/1 10/3/1 9/3/1
f 12/1/1 9/1/1 11/1/1
f 13/3/1 10/3/1 12/3/1
f 14/2/1 12/2/1 11/2/1
f 14/1/1 13/1/1 12/1/1
f 15/1/1 13/1/1 14/1/1
f 16/2/1 14/2/1 11/2/1
f 16/2/1 15/2/1 14/2/1
f 17/2/1 15/2/1 16/2/1
f 18/1/1 17/1/1 16/1/1
f 18/2/1 15/2/1 17/2/1
f 19/2/1 15/2/1 18/2/1
f 20/1/1 18/1/1 16/1/1
f 20/1/1 19/1/1 18/1/1
f 21/1/1 19/1/1 20/1/1
f 22/2/1 21/2/1 20/2/1
f 22/1/1 19/1/1 21/1/1
f 23/1/1 19/1/1 22/1/1
f 24/2/1 22/2/1 20/2/1
f 24/2/1 23/2/1 22/2/1
f 25/2/1 23/2/1 24/2/1
f 26/1/1 25/1/1 24/1/1
f 26/2/1 23/2/1 25/2/1
f 27/2/1 23/2/1 26/2/1
f 28/1/1 26/1/1 24/1/1
f 28/1/1 27/1/1 26/1/1
f 29/1/1 27/1/1 28/1/1
f 30/2/1 29/2/1 28/2/1
f 30/1/1 27/1/1 29/1/1
f 31/1/1 27/1/1 30/1/1
f 32/2/1 30/2/1 28/2/1
f 32/2/1 31/2/1 30/2/1
f 33/2/1 31/2/1 32/2/1
f 34/1/1 33/1/1 32/1/1
f 34/2/1 31/2/1 33/2/1
f 35/2/1 31/2/1 34/2/1
f 36/1/1 34/1/1 32/1/1
f 36/1/1 35/1/1 34/1/1
f 37/1/1 35/1/1 36/1/1
f 38/2/1 37/2/1 36/2/1
f 38/1/1 35/1/1 37/1/1
f 39/1/1 35/1/1 38/1/1
f 40/2/1 38/2/1 36/2/1
f 40/2/1 39/2/1 38/2/1
f 41/2/1 39/2/1 40/2/1
f 42/1/1 41/1/1 40/1/1
f 43/2/1 39/2/1 41/2/1
f 43/1/1 41/1/1 42/1/1
f 44/2/1 39/2/1 43/2/1
f 48/2/1 46/2/1 45/2/1
f 48/2/1 47/2/1 46/2/1
f 49/2/1 47/2/1 48/2/1
f 52/1/1 51/1/1 50/1/1
f 53/1/1 51/1/1 52/1/1
f 56/2/1 55/2/1 54/2/1
f 57/2/1 55/2/1 56/2/1
f 60/2/1 59/2/1 58/2/1
f 61/2/1 59/2/1 60/2/1
f 62/1/1 61/1/1 60/1/1
f 63/1/1 61/1/1 62/1/1
f 64/2/1 63/2/1 62/2/1
f 65/2/1 63/2/1 64/2/1
f 66/2/2 67/2/2 69/2/2
f 67/1/2 68/1/2 69/1/2
f 69/1/2 68/1/2 70/1/2
f 66/2/2 69/2/2 71/2/2
f 69/2/2 70/2/2 71/2/2
f 71/2/2 70/2/2 72/2/2
f 71/3/2 72/3/2 73/3/2
f 72/2/2 70/2/2 74/2/2
f 73/3/2 72/3/2 74/3/2
f 74/2/2 70/2/2 75/2/2
f 73/1/2 74/1/2 76/1/2
f 74/3/2 75/3/2 77/3/2
f 76/1/2 74/1/2 77/1/2
f 77/3/2 75/3/2 78/3/2
f 76/2/2 77/2/2 79/2/2
f 77/1/2 78/1/2 79/1/2
f 79/1/2 78/1/2 80/1/2
f 76/2/2 79/2/2 81/2/2
f 79/2/2 80/2/2 81/2/2
f 81/2/2 80/2/2 82/2/2
f 81/1/2 82/1/2 83/1/2
f 82/2/2 80/2/2 83/2/2
f 83/2/2 80/2/2 84/2/2
f 81/1/2 83/1/2 85/1/2
f 83/1/2 84/1/2 85/1/2
f 85/1/2 84/1/2 86/1/2
f 85/2/2 86/2/2 87/2/2
f 86/1/2 84/1/2 87/1/2
f 87/1/2 84/1/2 88/1/2
f 85/2/2 87/2/2 89/2/2
f 87/2/2 88/2/2 89/2/2
f 89/2/2 88/2/2 90/2/2
f 89/1/2 90/1/2 91/1/2
f 90/2/2 88/2/2 91/2/2
f 91/2/2 88/2/2 92/2/2
f 89/1/2 91/1/2 93/1/2
f 91/1/2 92/1/2 93/1/2
f 93/1/2 92/1/2 94/1/2
f 93/2/2 94/2/2 95/2/2
f 94/1/2 92/1/2 95/1/2
f 95/1/2 92/1/2 96/1/2
f 93/2/2 95/2/2 97/2/2
f 95/2/2 96/2/2 97/2/2
f 97/2/2 96/2/2 98/2/2
f 97/1/2 98/1/2 99/1/2
f 98/2/2 96/2/2 99/2/2
f 99/2/2 96/2/2 100/2/2
f 97/1/2 99/1/2 101/1/2
f 99/1/2 100/1/2 101/1/2
f 101/1/2 100/1/2 102/1/2
f 101/2/2 102/2/2 103/2/2
f 102/1/2 100/1/2 103/1/2
f 103/1/2 100/1/2 104/1/2
f 101/2/2 103/2/2 105/2/2
f 103/2/2 104/2/2 105/2/2
f 105/2/2 104/2/2 106/2/2
f 107/1/2 108/1/2 109/1/2
f 109/1/2 108/1/2 110/1/2
f 110/1/2 108/1/2 111/1/2
f 112/2/2 113/2/2 115/2/2
f 113/1/2 114/1/2 116/1/2
f 115/2/2 113/2/2 116/2/2
f 116/1/2 114/1/2 117/1/2
f 118/1/2 119/1/2 120/1/2
f 120/1/2 119/1/2 121/1/2
f 122/2/2 123/2/2 124/2/2
f 124/2/2 123/2/2 125/2/2
f 124/1/2 125/1/2 126/1/2
f 126/1/2 125/1/2 127/1/2
f 126/2/2 127/2/2 128/2/2
f 128/2/2 127/2/2 129/2/2
f 128/1/2 129/1/2 130/1/2
f 130/1/2 129/1/2 131/1/2
f 144/2/3 133/2/3 132/2/3
f 145/3/3 134/3/3 133/3/3
f 145/2/3 133/2/3 144/2/3
f 146/1/3 135/1/3 134/1/3
f 146/3/3 134/3/3 145/3/3
f 147/2/3 136/2/3 135/2/3
f 147/1/3 135/1/3 146/1/3
f 148/1/3 137/1/3 136/1/3
f 148/2/3 136/2/3 147/2/3
f 149/2/3 138/2/3 137/2/3
f 149/1/3 137/1/3 148/1/3
f 150/1/3 139/1/3 138/1/3
f 150/2/3 138/2/3 149/2/3
f 151/2/3 140/2/3 139/2/3
f 151/1/3 139/1/3 150/1/3
f 152/1/3 141/1/3 140/1/3
f 152/2/3 140/2/3 151/2/3
f 153/2/3 142/2/3 141/2/3
f 153/1/3 141/1/3 152/1/3
f 154/1/3 143/1/3 142/1/3
f 154/2/3 142/2/3 153/2/3
f 155/1/3 143/1/3 154/1/3
f 157/1/3 155/1/3 154/1/3
f 158/2/3 156/2/3 155/2/3
f 158/1/3 155/1/3 157/1/3
f 159/2/3 156/2/3 158/2/3
f 161/2/3 159/2/3 158/2/3
f 162/1/3 160/1/3 159/1/3
f 162/2/3 159/2/3 161/2/3
f 163/1/3 160/1/3 162/1/3
f 165/2/3 163/2/3 162/2/3
f 166/2/3 163/2/3 165/2/3
f 170/2/3 165/2/3 164/2/3
f 171/1/3 166/1/3 165/1/3
f 171/2/3 165/2/3 170/2/3
f 172/1/3 166/1/3 171/1/3
f 173/2/3 168/2/3 167/2/3
f 174/1/3 169/1/3 168/1/3
f 174/2/3 168/2/3 173/2/3
f 175/2/3 170/2/3 169/2/3
f 175/1/3 169/1/3 174/1/3
f 176/1/3 171/1/3 170/1/3
f 176/2/3 170/2/3 175/2/3
f 177/1/3 171/1/3 176/1/3
f 178/1/4 179/1/4 190/1/4
f 179/2/4 180/2/4 191/2/4
f 190/1/4 179/1/4 191/1/4
f 180/3/4 181/3/4 192/3/4
f 191/2/4 180/2/4 192/2/4
f 181/1/4 182/1/4 193/1/4
f 192/3/4 181/3/4 193/3/4
f 182/2/4 183/2/4 194/2/4
f 193/1/4 182/1/4 194/1/4
f 183/1/4 184/1/4 195/1/4
f 194/2/4 183/2/4 195/2/4
f 184/2/4 185/2/4 196/2/4
f 195/1/4 184/1/4 196/1/4
f 185/1/4 186/1/4 197/1/4
f 196/2/4 185/2/4 197/2/4
f 186/2/4 187/2/4 198/2/4
f 197/1/4 186/1/4 198/1/4
f 187/1/4 188/1/4 199/1/4
f 198/2/4 187/2/4 199/2/4
f 188/2/4 189/2/4 200/2/4
f 199/1/4 188/1/4 200/1/4
f 200/2/4 189/2/4 201/2/4
f 201/2/4 189/2/4 202/2/4
f 201/1/4 202/1/4 204/1/4
f 202/2/4 203/2/4 205/2/4
f 204/1/4 202/1/4 205/1/4
f 205/2/4 203/2/4 206/2/4
f 206/1/4 207/1/4 208/1/4
f 205/1/4 206/1/4 208/1/4
f 208/1/4 207/1/4 209/1/4
f 209/1/4 207/1/4 210/1/4
f 209/2/4 210/2/4 212/2/4
f 212/2/4 210/2/4 213/2/4
f 211/2/4 212/2/4 217/2/4
f 212/1/4 213/1/4 218/1/4
f 217/2/4 212/2/4 218/2/4
f 218/1/4 213/1/4 219/1/4
f 214/2/4 215/2/4 220/2/4
f 215/1/4 216/1/4 221/1/4
f 220/2/4 215/2/4 221/2/4
f 216/2/4 217/2/4 222/2/4
f 221/1/4 216/1/4 222/1/4
f 217/1/4 218/1/4 223/1/4
f 222/2/4 217/2/4 223/2/4
f 223/1/4 218/1/4 224/1/4
f 227/2/5 226/2/5 225/2/5
f 228/2/5 226/2/5 227/2/5
f 229/1/5 228/1/5 227/1/5
f 230/1/5 228/1/5 229/1/5
f 233/2/5 232/2/5 231/2/5
f 234/2/5 232/2/5 233/2/5
f 237/1/5 236/1/5 235/1/5
f 238/1/5 236/1/5 237/1/5
f 243/2/5 240/2/5 239/2/5
f 244/2/5 240/2/5 243/2/5
f 245/1/5 244/1/5 243/1/5
f 246/1/5 244/1/5 245/1/5
f 247/2/5 242/2/5 241/2/5
f 248/2/5 242/2/5 247/2/5
f 251/2/5 250/2/5 249/2/5
f 252/2/5 250/2/5 251/2/5
f 253/2/5 250/2/5 252/2/5
f 254/1/6 255/1/6 256/1/6
f 256/1/6 255/1/6 257/1/6
f 256/2/6 257/2/6 258/2/6
f 258/2/6 257/2/6 259/2/6
f 260/2/6 261/2/6 264/2/6
f 264/2/6 261/2/6 265/2/6
f 262/1/6 263/1/6 266/1/6
f 266/1/6 263/1/6 267/1/6
f 268/1/6 269/1/6 272/1/6
f 269/2/6 270/2/6 273/2/6
f 272/1/6 269/1/6 273/1/6
f 270/1/6 271/1/6 274/1/6
f 273/2/6 270/2/6 274/2/6
f 274/1/6 271/1/6 275/1/6
