# MagicaVoxel @ Ephtracy

# group
o 

# material
mtllib player.mtl
usemtl palette

# normals
vn -1 0 0
vn 1 0 0
vn 0 0 1
vn 0 0 -1
vn 0 -1 0
vn 0 1 0

# texcoords
vt 0.853516 0.5
vt 0.939453 0.5
vt 0.943359 0.5
vt 0.978516 0.5
vt 0.982422 0.5
vt 0.986328 0.5

# verts
v -1.1 0.1 -0.1
v -1.1 0.1 -0.2
v -1.1 0.2 -0.1
v -1.1 0.2 -0.2
v -1 0.1 0
v -1 0.1 -0.1
v -1 0.2 0
v -1 0.2 -0.1
v -0.9 0.1 0.1
v -0.9 0.1 0
v -0.9 0.2 0.1
v -0.9 0.2 0
v -0.8 0.1 0.2
v -0.8 0.1 0.1
v -0.8 0.2 0.2
v -0.8 0.2 0.1
v -0.7 0 0
v -0.7 0 -0.1
v -0.7 0.1 0
v -0.7 0.1 -0.1
v -0.5 0.1 0.3
v -0.5 0.1 0.2
v -0.5 0.2 0.3
v -0.5 0.2 0.2
v -0.3 0.1 0.4
v -0.3 0.1 0.3
v -0.3 0.1 -0.6
v -0.3 0.1 -0.8
v -0.3 0.2 0.4
v -0.3 0.2 0.3
v -0.3 0.2 -0.6
v -0.3 0.2 -0.8
v -0.2 0.1 0.7
v -0.2 0.1 0.6
v -0.2 0.1 0.5
v -0.2 0.1 0.4
v -0.2 0.1 -0.5
v -0.2 0.1 -0.6
v -0.2 0.2 0.7
v -0.2 0.2 0.6
v -0.2 0.2 0.5
v -0.2 0.2 0.4
v -0.2 0.2 0.3
v -0.2 0.2 0.2
v -0.2 0.2 0.1
v -0.2 0.2 0
v -0.2 0.2 -0.1
v -0.2 0.2 -0.5
v -0.2 0.2 -0.6
v -0.2 0.3 0.4
v -0.2 0.3 0.3
v -0.2 0.3 0.2
v -0.2 0.3 0.1
v -0.2 0.3 0
v -0.2 0.3 -0.1
v -0.1 0 0.7
v -0.1 0 0.6
v -0.1 0.1 0.9
v -0.1 0.1 0.8
v -0.1 0.1 0.7
v -0.1 0.1 0.6
v -0.1 0.1 -0.2
v -0.1 0.1 -0.3
v -0.1 0.1 -0.4
v -0.1 0.1 -0.5
v -0.1 0.2 0.9
v -0.1 0.2 0.8
v -0.1 0.2 0.7
v -0.1 0.2 0.6
v -0.1 0.2 0.5
v -0.1 0.2 0.4
v -0.1 0.2 0.2
v -0.1 0.2 0.1
v -0.1 0.2 -0.1
v -0.1 0.2 -0.2
v -0.1 0.2 -0.5
v -0.1 0.2 -0.6
v -0.1 0.2 -0.7
v -0.1 0.2 -0.8
v -0.1 0.3 0.8
v -0.1 0.3 0.6
v -0.1 0.3 0.5
v -0.1 0.3 0.4
v -0.1 0.3 0.2
v -0.1 0.3 0.1
v -0.1 0.3 -0.1
v -0.1 0.3 -0.2
v -0.1 0.3 -0.3
v -0.1 0.3 -0.4
v -0.1 0.3 -0.6
v -0.1 0.4 -0.6
v -0.1 0.4 -0.7
v -0.1 0.5 -0.7
v -0.1 0.5 -0.8
v 0.4 0 0
v 0.4 0 -0.1
v 0.4 0.1 0
v 0.4 0.1 -0.1
v -0.5 0 0
v -0.5 0 -0.1
v -0.5 0.1 0
v -0.5 0.1 -0.1
v 0 0 0.7
v 0 0 0.6
v 0 0.1 0.9
v 0 0.1 0.8
v 0 0.1 0.7
v 0 0.1 0.6
v 0 0.1 -0.2
v 0 0.1 -0.3
v 0 0.1 -0.4
v 0 0.1 -0.5
v 0 0.2 0.9
v 0 0.2 0.8
v 0 0.2 0.7
v 0 0.2 0.6
v 0 0.2 0.5
v 0 0.2 0.4
v 0 0.2 0.2
v 0 0.2 0.1
v 0 0.2 -0.1
v 0 0.2 -0.2
v 0 0.2 -0.5
v 0 0.2 -0.6
v 0 0.2 -0.7
v 0 0.2 -0.8
v 0 0.3 0.8
v 0 0.3 0.6
v 0 0.3 0.5
v 0 0.3 0.4
v 0 0.3 0.2
v 0 0.3 0.1
v 0 0.3 -0.1
v 0 0.3 -0.2
v 0 0.3 -0.3
v 0 0.3 -0.4
v 0 0.3 -0.6
v 0 0.4 -0.6
v 0 0.4 -0.7
v 0 0.5 -0.7
v 0 0.5 -0.8
v 0.1 0.1 0.7
v 0.1 0.1 0.6
v 0.1 0.1 0.5
v 0.1 0.1 0.4
v 0.1 0.1 -0.5
v 0.1 0.1 -0.6
v 0.1 0.2 0.7
v 0.1 0.2 0.6
v 0.1 0.2 0.5
v 0.1 0.2 0.4
v 0.1 0.2 0.3
v 0.1 0.2 0.2
v 0.1 0.2 0.1
v 0.1 0.2 0
v 0.1 0.2 -0.1
v 0.1 0.2 -0.5
v 0.1 0.2 -0.6
v 0.1 0.3 0.4
v 0.1 0.3 0.3
v 0.1 0.3 0.2
v 0.1 0.3 0.1
v 0.1 0.3 0
v 0.1 0.3 -0.1
v 0.2 0.1 0.4
v 0.2 0.1 0.3
v 0.2 0.1 -0.6
v 0.2 0.1 -0.8
v 0.2 0.2 0.4
v 0.2 0.2 0.3
v 0.2 0.2 -0.6
v 0.2 0.2 -0.8
v 0.4 0.1 0.3
v 0.4 0.1 0.2
v 0.4 0.2 0.3
v 0.4 0.2 0.2
v 0.6 0 0
v 0.6 0 -0.1
v 0.6 0.1 0
v 0.6 0.1 -0.1
v 0.7 0.1 0.2
v 0.7 0.1 0.1
v 0.7 0.2 0.2
v 0.7 0.2 0.1
v 0.8 0.1 0.1
v 0.8 0.1 0
v 0.8 0.2 0.1
v 0.8 0.2 0
v 0.9 0.1 0
v 0.9 0.1 -0.1
v 0.9 0.2 0
v 0.9 0.2 -0.1
v 1 0.1 -0.1
v 1 0.1 -0.2
v 1 0.2 -0.1
v 1 0.2 -0.2
v -0.1 0.1 0.9
v -0.1 0.2 0.9
v 0 0.1 0.9
v 0 0.2 0.9
v -0.1 0.2 0.8
v -0.1 0.3 0.8
v 0 0.2 0.8
v 0 0.3 0.8
v -0.2 0.1 0.7
v -0.2 0.2 0.7
v -0.1 0 0.7
v -0.1 0.1 0.7
v -0.1 0.2 0.7
v 0 0 0.7
v 0 0.1 0.7
v 0 0.2 0.7
v 0.1 0.1 0.7
v 0.1 0.2 0.7
v -0.3 0.1 0.4
v -0.3 0.2 0.4
v -0.2 0.1 0.4
v -0.2 0.2 0.4
v -0.2 0.3 0.4
v -0.1 0.2 0.4
v -0.1 0.3 0.4
v 0 0.2 0.4
v 0 0.3 0.4
v 0.1 0.1 0.4
v 0.1 0.2 0.4
v 0.1 0.3 0.4
v 0.2 0.1 0.4
v 0.2 0.2 0.4
v -0.5 0.1 0.3
v -0.5 0.2 0.3
v -0.3 0.1 0.3
v -0.3 0.2 0.3
v 0.2 0.1 0.3
v 0.2 0.2 0.3
v 0.4 0.1 0.3
v 0.4 0.2 0.3
v -0.8 0.1 0.2
v -0.8 0.2 0.2
v -0.5 0.1 0.2
v -0.5 0.2 0.2
v 0.4 0.1 0.2
v 0.4 0.2 0.2
v 0.7 0.1 0.2
v 0.7 0.2 0.2
v -0.9 0.1 0.1
v -0.9 0.2 0.1
v -0.8 0.1 0.1
v -0.8 0.2 0.1
v -0.2 0.2 0.1
v -0.2 0.3 0.1
v -0.1 0.2 0.1
v -0.1 0.3 0.1
v 0 0.2 0.1
v 0 0.3 0.1
v 0.1 0.2 0.1
v 0.1 0.3 0.1
v 0.7 0.1 0.1
v 0.7 0.2 0.1
v 0.8 0.1 0.1
v 0.8 0.2 0.1
v -1 0.1 0
v -1 0.2 0
v -0.9 0.1 0
v -0.9 0.2 0
v -0.7 0 0
v -0.7 0.1 0
v -0.6 0.1 0
v -0.5 0 0
v -0.5 0.1 0
v 0.4 0 0
v 0.4 0.1 0
v 0.5 0.1 0
v 0.6 0 0
v 0.6 0.1 0
v 0.8 0.1 0
v 0.8 0.2 0
v 0.9 0.1 0
v 0.9 0.2 0
v -1.1 0.1 -0.1
v -1.1 0.2 -0.1
v -1 0.1 -0.1
v -1 0.2 -0.1
v 0.9 0.1 -0.1
v 0.9 0.2 -0.1
v 1 0.1 -0.1
v 1 0.2 -0.1
v -0.2 0.1 -0.5
v -0.2 0.2 -0.5
v -0.1 0.1 -0.5
v -0.1 0.2 -0.5
v 0 0.1 -0.5
v 0 0.2 -0.5
v 0.1 0.1 -0.5
v 0.1 0.2 -0.5
v -0.3 0.1 -0.6
v -0.3 0.2 -0.6
v -0.2 0.1 -0.6
v -0.2 0.2 -0.6
v -0.1 0.3 -0.6
v -0.1 0.4 -0.6
v 0 0.3 -0.6
v 0 0.4 -0.6
v 0.1 0.1 -0.6
v 0.1 0.2 -0.6
v 0.2 0.1 -0.6
v 0.2 0.2 -0.6
v -0.1 0.4 -0.7
v -0.1 0.5 -0.7
v 0 0.4 -0.7
v 0 0.5 -0.7
v -0.1 0 0.6
v -0.1 0.1 0.6
v 0 0 0.6
v 0 0.1 0.6
v -0.2 0.2 0.2
v -0.2 0.3 0.2
v -0.1 0.2 0.2
v -0.1 0.3 0.2
v 0 0.2 0.2
v 0 0.3 0.2
v 0.1 0.2 0.2
v 0.1 0.3 0.2
v -0.7 0 -0.1
v -0.7 0.1 -0.1
v -0.5 0 -0.1
v -0.5 0.1 -0.1
v -0.2 0.2 -0.1
v -0.2 0.3 -0.1
v -0.1 0.2 -0.1
v -0.1 0.3 -0.1
v 0 0.2 -0.1
v 0 0.3 -0.1
v 0.1 0.2 -0.1
v 0.1 0.3 -0.1
v 0.4 0 -0.1
v 0.4 0.1 -0.1
v 0.6 0 -0.1
v 0.6 0.1 -0.1
v -1.1 0.1 -0.2
v -1.1 0.2 -0.2
v -0.1 0.1 -0.2
v -0.1 0.2 -0.2
v 0 0.1 -0.2
v 0 0.2 -0.2
v 1 0.1 -0.2
v 1 0.2 -0.2
v -0.3 0.1 -0.8
v -0.3 0.2 -0.8
v -0.1 0.1 -0.8
v -0.1 0.2 -0.8
v -0.1 0.5 -0.8
v 0 0.1 -0.8
v 0 0.2 -0.8
v 0 0.5 -0.8
v 0.2 0.1 -0.8
v 0.2 0.2 -0.8
v -0.1 0 0.7
v 0 0 0.7
v -0.1 0 0.6
v 0 0 0.6
v -0.7 0 0
v -0.5 0 0
v 0.4 0 0
v 0.6 0 0
v -0.7 0 -0.1
v -0.5 0 -0.1
v 0.4 0 -0.1
v 0.6 0 -0.1
v -0.1 0.1 0.9
v 0 0.1 0.9
v -0.1 0.1 0.8
v 0 0.1 0.8
v -0.2 0.1 0.7
v -0.1 0.1 0.7
v 0 0.1 0.7
v 0.1 0.1 0.7
v -0.2 0.1 0.6
v -0.1 0.1 0.6
v 0 0.1 0.6
v 0.1 0.1 0.6
v -0.2 0.1 0.5
v 0.1 0.1 0.5
v -0.3 0.1 0.4
v -0.2 0.1 0.4
v 0.1 0.1 0.4
v 0.2 0.1 0.4
v -0.5 0.1 0.3
v -0.3 0.1 0.3
v 0.2 0.1 0.3
v 0.4 0.1 0.3
v -0.8 0.1 0.2
v -0.5 0.1 0.2
v 0.4 0.1 0.2
v 0.7 0.1 0.2
v -0.9 0.1 0.1
v -0.8 0.1 0.1
v -0.6 0.1 0.1
v -0.4 0.1 0.1
v 0.3 0.1 0.1
v 0.5 0.1 0.1
v 0.7 0.1 0.1
v 0.8 0.1 0.1
v -1 0.1 0
v -0.9 0.1 0
v -0.7 0.1 0
v -0.6 0.1 0
v -0.5 0.1 0
v 0.4 0.1 0
v 0.5 0.1 0
v 0.6 0.1 0
v 0.8 0.1 0
v 0.9 0.1 0
v -1.1 0.1 -0.1
v -1 0.1 -0.1
v -0.7 0.1 -0.1
v -0.5 0.1 -0.1
v -0.4 0.1 -0.1
v -0.2 0.1 -0.1
v -0.1 0.1 -0.1
v 0 0.1 -0.1
v 0.1 0.1 -0.1
v 0.3 0.1 -0.1
v 0.4 0.1 -0.1
v 0.6 0.1 -0.1
v 0.9 0.1 -0.1
v 1 0.1 -0.1
v -1.1 0.1 -0.2
v -0.1 0.1 -0.2
v 0 0.1 -0.2
v 1 0.1 -0.2
v -0.1 0.1 -0.3
v 0 0.1 -0.3
v -0.1 0.1 -0.4
v 0 0.1 -0.4
v -0.2 0.1 -0.5
v -0.1 0.1 -0.5
v 0 0.1 -0.5
v 0.1 0.1 -0.5
v -0.3 0.1 -0.6
v -0.2 0.1 -0.6
v 0.1 0.1 -0.6
v 0.2 0.1 -0.6
v -0.3 0.1 -0.8
v -0.1 0.1 -0.8
v 0 0.1 -0.8
v 0.2 0.1 -0.8
v -0.1 0.2 0.9
v 0 0.2 0.9
v -0.1 0.2 0.8
v 0 0.2 0.8
v -0.2 0.2 0.7
v -0.1 0.2 0.7
v 0 0.2 0.7
v 0.1 0.2 0.7
v -0.2 0.2 0.6
v -0.1 0.2 0.6
v 0 0.2 0.6
v 0.1 0.2 0.6
v -0.2 0.2 0.5
v -0.1 0.2 0.5
v 0 0.2 0.5
v 0.1 0.2 0.5
v -0.3 0.2 0.4
v -0.2 0.2 0.4
v -0.1 0.2 0.4
v 0 0.2 0.4
v 0.1 0.2 0.4
v 0.2 0.2 0.4
v -0.5 0.2 0.3
v -0.3 0.2 0.3
v -0.2 0.2 0.3
v 0.1 0.2 0.3
v 0.2 0.2 0.3
v 0.4 0.2 0.3
v -0.8 0.2 0.2
v -0.5 0.2 0.2
v -0.2 0.2 0.2
v -0.1 0.2 0.2
v 0 0.2 0.2
v 0.1 0.2 0.2
v 0.4 0.2 0.2
v 0.7 0.2 0.2
v -0.9 0.2 0.1
v -0.8 0.2 0.1
v -0.6 0.2 0.1
v -0.4 0.2 0.1
v -0.2 0.2 0.1
v -0.1 0.2 0.1
v 0 0.2 0.1
v 0.1 0.2 0.1
v 0.3 0.2 0.1
v 0.5 0.2 0.1
v 0.7 0.2 0.1
v 0.8 0.2 0.1
v -1 0.2 0
v -0.9 0.2 0
v -0.2 0.2 0
v 0.1 0.2 0
v 0.8 0.2 0
v 0.9 0.2 0
v -1.1 0.2 -0.1
v -1 0.2 -0.1
v -0.6 0.2 -0.1
v -0.4 0.2 -0.1
v -0.2 0.2 -0.1
v -0.1 0.2 -0.1
v 0 0.2 -0.1
v 0.1 0.2 -0.1
v 0.3 0.2 -0.1
v 0.5 0.2 -0.1
v 0.9 0.2 -0.1
v 1 0.2 -0.1
v -1.1 0.2 -0.2
v -0.1 0.2 -0.2
v 0 0.2 -0.2
v 1 0.2 -0.2
v -0.2 0.2 -0.5
v -0.1 0.2 -0.5
v 0 0.2 -0.5
v 0.1 0.2 -0.5
v -0.3 0.2 -0.6
v -0.2 0.2 -0.6
v -0.1 0.2 -0.6
v 0 0.2 -0.6
v 0.1 0.2 -0.6
v 0.2 0.2 -0.6
v -0.1 0.2 -0.7
v 0 0.2 -0.7
v -0.3 0.2 -0.8
v -0.1 0.2 -0.8
v 0 0.2 -0.8
v 0.2 0.2 -0.8
v -0.1 0.3 0.8
v 0 0.3 0.8
v -0.1 0.3 0.6
v 0 0.3 0.6
v -0.1 0.3 0.5
v 0 0.3 0.5
v -0.2 0.3 0.4
v -0.1 0.3 0.4
v 0 0.3 0.4
v 0.1 0.3 0.4
v -0.2 0.3 0.3
v 0.1 0.3 0.3
v -0.2 0.3 0.2
v -0.1 0.3 0.2
v 0 0.3 0.2
v 0.1 0.3 0.2
v -0.2 0.3 0.1
v -0.1 0.3 0.1
v 0 0.3 0.1
v 0.1 0.3 0.1
v -0.2 0.3 0
v 0.1 0.3 0
v -0.2 0.3 -0.1
v -0.1 0.3 -0.1
v 0 0.3 -0.1
v 0.1 0.3 -0.1
v -0.1 0.3 -0.2
v 0 0.3 -0.2
v -0.1 0.3 -0.3
v 0 0.3 -0.3
v -0.1 0.3 -0.4
v 0 0.3 -0.4
v -0.1 0.3 -0.6
v 0 0.3 -0.6
v -0.1 0.4 -0.6
v 0 0.4 -0.6
v -0.1 0.4 -0.7
v 0 0.4 -0.7
v -0.1 0.5 -0.7
v 0 0.5 -0.7
v -0.1 0.5 -0.8
v 0 0.5 -0.8

# faces
f 3/2/1 2/2/1 1/2/1
f 4/2/1 2/2/1 3/2/1
f 7/2/1 6/2/1 5/2/1
f 8/2/1 6/2/1 7/2/1
f 11/2/1 10/2/1 9/2/1
f 12/2/1 10/2/1 11/2/1
f 15/2/1 14/2/1 13/2/1
f 16/2/1 14/2/1 15/2/1
f 19/4/1 18/4/1 17/4/1
f 20/4/1 18/4/1 19/4/1
f 23/2/1 22/2/1 21/2/1
f 24/2/1 22/2/1 23/2/1
f 29/2/1 26/2/1 25/2/1
f 30/2/1 26/2/1 29/2/1
f 31/2/1 28/2/1 27/2/1
f 32/2/1 28/2/1 31/2/1
f 39/2/1 34/2/1 33/2/1
f 40/3/1 35/3/1 34/3/1
f 40/2/1 34/2/1 39/2/1
f 41/2/1 36/2/1 35/2/1
f 41/3/1 35/3/1 40/3/1
f 42/2/1 36/2/1 41/2/1
f 48/2/1 38/2/1 37/2/1
f 49/2/1 38/2/1 48/2/1
f 50/2/1 43/2/1 42/2/1
f 51/3/1 44/3/1 43/3/1
f 51/2/1 43/2/1 50/2/1
f 52/3/1 44/3/1 51/3/1
f 53/3/1 46/3/1 45/3/1
f 54/2/1 47/2/1 46/2/1
f 54/3/1 46/3/1 53/3/1
f 55/2/1 47/2/1 54/2/1
f 60/4/1 57/4/1 56/4/1
f 61/4/1 57/4/1 60/4/1
f 66/2/1 59/2/1 58/2/1
f 67/3/1 60/3/1 59/3/1
f 67/2/1 59/2/1 66/2/1
f 68/3/1 60/3/1 67/3/1
f 75/2/1 63/2/1 62/2/1
f 76/2/1 65/2/1 64/2/1
f 80/5/1 68/5/1 67/5/1
f 80/5/1 69/5/1 68/5/1
f 81/3/1 70/3/1 69/3/1
f 81/5/1 69/5/1 80/5/1
f 82/2/1 71/2/1 70/2/1
f 82/3/1 70/3/1 81/3/1
f 83/2/1 71/2/1 82/2/1
f 84/2/1 73/2/1 72/2/1
f 85/2/1 73/2/1 84/2/1
f 86/3/1 75/3/1 74/3/1
f 87/2/1 63/2/1 75/2/1
f 87/3/1 75/3/1 86/3/1
f 88/3/1 64/3/1 63/3/1
f 88/2/1 63/2/1 87/2/1
f 89/2/1 77/2/1 76/2/1
f 89/3/1 64/3/1 88/3/1
f 89/2/1 76/2/1 64/2/1
f 90/3/1 78/3/1 77/3/1
f 90/2/1 77/2/1 89/2/1
f 91/3/1 78/3/1 90/3/1
f 92/2/1 79/2/1 78/2/1
f 92/3/1 78/3/1 91/3/1
f 93/2/1 79/2/1 92/2/1
f 94/2/1 79/2/1 93/2/1
f 97/4/1 96/4/1 95/4/1
f 98/4/1 96/4/1 97/4/1
f 99/4/2 100/4/2 101/4/2
f 101/4/2 100/4/2 102/4/2
f 103/4/2 104/4/2 107/4/2
f 107/4/2 104/4/2 108/4/2
f 105/2/2 106/2/2 113/2/2
f 106/3/2 107/3/2 114/3/2
f 113/2/2 106/2/2 114/2/2
f 114/3/2 107/3/2 115/3/2
f 109/2/2 110/2/2 122/2/2
f 111/2/2 112/2/2 123/2/2
f 114/5/2 115/5/2 127/5/2
f 115/5/2 116/5/2 127/5/2
f 116/3/2 117/3/2 128/3/2
f 127/5/2 116/5/2 128/5/2
f 117/2/2 118/2/2 129/2/2
f 128/3/2 117/3/2 129/3/2
f 129/2/2 118/2/2 130/2/2
f 119/2/2 120/2/2 131/2/2
f 131/2/2 120/2/2 132/2/2
f 121/3/2 122/3/2 133/3/2
f 122/2/2 110/2/2 134/2/2
f 133/3/2 122/3/2 134/3/2
f 110/3/2 111/3/2 135/3/2
f 134/2/2 110/2/2 135/2/2
f 123/2/2 124/2/2 136/2/2
f 135/3/2 111/3/2 136/3/2
f 111/2/2 123/2/2 136/2/2
f 124/3/2 125/3/2 137/3/2
f 136/2/2 124/2/2 137/2/2
f 137/3/2 125/3/2 138/3/2
f 125/2/2 126/2/2 139/2/2
f 138/3/2 125/3/2 139/3/2
f 139/2/2 126/2/2 140/2/2
f 140/2/2 126/2/2 141/2/2
f 142/2/2 143/2/2 148/2/2
f 143/3/2 144/3/2 149/3/2
f 148/2/2 143/2/2 149/2/2
f 144/2/2 145/2/2 150/2/2
f 149/3/2 144/3/2 150/3/2
f 150/2/2 145/2/2 151/2/2
f 146/2/2 147/2/2 157/2/2
f 157/2/2 147/2/2 158/2/2
f 151/2/2 152/2/2 159/2/2
f 152/3/2 153/3/2 160/3/2
f 159/2/2 152/2/2 160/2/2
f 160/3/2 153/3/2 161/3/2
f 154/3/2 155/3/2 162/3/2
f 155/2/2 156/2/2 163/2/2
f 162/3/2 155/3/2 163/3/2
f 163/2/2 156/2/2 164/2/2
f 165/2/2 166/2/2 169/2/2
f 169/2/2 166/2/2 170/2/2
f 167/2/2 168/2/2 171/2/2
f 171/2/2 168/2/2 172/2/2
f 173/2/2 174/2/2 175/2/2
f 175/2/2 174/2/2 176/2/2
f 177/4/2 178/4/2 179/4/2
f 179/4/2 178/4/2 180/4/2
f 181/2/2 182/2/2 183/2/2
f 183/2/2 182/2/2 184/2/2
f 185/2/2 186/2/2 187/2/2
f 187/2/2 186/2/2 188/2/2
f 189/2/2 190/2/2 191/2/2
f 191/2/2 190/2/2 192/2/2
f 193/2/2 194/2/2 195/2/2
f 195/2/2 194/2/2 196/2/2
f 199/2/3 198/2/3 197/2/3
f 200/2/3 198/2/3 199/2/3
f 203/5/3 202/5/3 201/5/3
f 204/5/3 202/5/3 203/5/3
f 208/2/3 206/2/3 205/2/3
f 209/2/3 206/2/3 208/2/3
f 210/4/3 208/4/3 207/4/3
f 211/4/3 208/4/3 210/4/3
f 213/2/3 212/2/3 211/2/3
f 214/2/3 212/2/3 213/2/3
f 217/2/3 216/2/3 215/2/3
f 218/2/3 216/2/3 217/2/3
f 220/2/3 219/2/3 218/2/3
f 221/2/3 219/2/3 220/2/3
f 225/2/3 223/2/3 222/2/3
f 226/2/3 223/2/3 225/2/3
f 227/2/3 225/2/3 224/2/3
f 228/2/3 225/2/3 227/2/3
f 231/2/3 230/2/3 229/2/3
f 232/2/3 230/2/3 231/2/3
f 235/2/3 234/2/3 233/2/3
f 236/2/3 234/2/3 235/2/3
f 239/2/3 238/2/3 237/2/3
f 240/2/3 238/2/3 239/2/3
f 243/2/3 242/2/3 241/2/3
f 244/2/3 242/2/3 243/2/3
f 247/2/3 246/2/3 245/2/3
f 248/2/3 246/2/3 247/2/3
f 251/3/3 250/3/3 249/3/3
f 252/3/3 250/3/3 251/3/3
f 255/3/3 254/3/3 253/3/3
f 256/3/3 254/3/3 255/3/3
f 259/2/3 258/2/3 257/2/3
f 260/2/3 258/2/3 259/2/3
f 263/2/3 262/2/3 261/2/3
f 264/2/3 262/2/3 263/2/3
f 267/4/3 266/4/3 265/4/3
f 268/4/3 267/4/3 265/4/3
f 269/4/3 267/4/3 268/4/3
f 272/4/3 271/4/3 270/4/3
f 273/4/3 272/4/3 270/4/3
f 274/4/3 272/4/3 273/4/3
f 277/2/3 276/2/3 275/2/3
f 278/2/3 276/2/3 277/2/3
f 281/2/3 280/2/3 279/2/3
f 282/2/3 280/2/3 281/2/3
f 285/2/3 284/2/3 283/2/3
f 286/2/3 284/2/3 285/2/3
f 289/2/3 288/2/3 287/2/3
f 290/2/3 288/2/3 289/2/3
f 293/2/3 292/2/3 291/2/3
f 294/2/3 292/2/3 293/2/3
f 297/2/3 296/2/3 295/2/3
f 298/2/3 296/2/3 297/2/3
f 301/3/3 300/3/3 299/3/3
f 302/3/3 300/3/3 301/3/3
f 305/2/3 304/2/3 303/2/3
f 306/2/3 304/2/3 305/2/3
f 309/2/3 308/2/3 307/2/3
f 310/2/3 308/2/3 309/2/3
f 311/4/4 312/4/4 313/4/4
f 313/4/4 312/4/4 314/4/4
f 315/3/4 316/3/4 317/3/4
f 317/3/4 316/3/4 318/3/4
f 319/3/4 320/3/4 321/3/4
f 321/3/4 320/3/4 322/3/4
f 323/4/4 324/4/4 325/4/4
f 325/4/4 324/4/4 326/4/4
f 327/2/4 328/2/4 329/2/4
f 329/2/4 328/2/4 330/2/4
f 331/2/4 332/2/4 333/2/4
f 333/2/4 332/2/4 334/2/4
f 335/4/4 336/4/4 337/4/4
f 337/4/4 336/4/4 338/4/4
f 339/2/4 340/2/4 341/2/4
f 341/2/4 340/2/4 342/2/4
f 343/2/4 344/2/4 345/2/4
f 345/2/4 344/2/4 346/2/4
f 347/2/4 348/2/4 349/2/4
f 349/2/4 348/2/4 350/2/4
f 349/3/4 350/3/4 352/3/4
f 350/2/4 351/2/4 353/2/4
f 352/3/4 350/3/4 353/3/4
f 353/2/4 351/2/4 354/2/4
f 352/2/4 353/2/4 355/2/4
f 355/2/4 353/2/4 356/2/4
f 359/4/5 358/4/5 357/4/5
f 360/4/5 358/4/5 359/4/5
f 365/4/5 362/4/5 361/4/5
f 366/4/5 362/4/5 365/4/5
f 367/4/5 364/4/5 363/4/5
f 368/4/5 364/4/5 367/4/5
f 371/2/5 370/2/5 369/2/5
f 372/2/5 370/2/5 371/2/5
f 374/3/5 372/3/5 371/3/5
f 375/3/5 372/3/5 374/3/5
f 377/2/5 374/2/5 373/2/5
f 378/2/5 374/2/5 377/2/5
f 379/2/5 376/2/5 375/2/5
f 380/2/5 376/2/5 379/2/5
f 381/3/5 378/3/5 377/3/5
f 381/3/5 379/3/5 378/3/5
f 381/3/5 380/3/5 379/3/5
f 382/3/5 380/3/5 381/3/5
f 384/2/5 382/2/5 381/2/5
f 385/2/5 382/2/5 384/2/5
f 388/2/5 384/2/5 383/2/5
f 389/2/5 386/2/5 385/2/5
f 392/2/5 388/2/5 387/2/5
f 393/2/5 390/2/5 389/2/5
f 396/2/5 392/2/5 391/2/5
f 397/2/5 392/2/5 396/2/5
f 398/2/5 388/2/5 392/2/5
f 398/2/5 392/2/5 397/2/5
f 399/2/5 394/2/5 393/2/5
f 399/2/5 393/2/5 389/2/5
f 400/2/5 394/2/5 399/2/5
f 401/2/5 394/2/5 400/2/5
f 404/2/5 397/2/5 396/2/5
f 404/2/5 396/2/5 395/2/5
f 405/2/5 397/2/5 404/2/5
f 406/6/5 398/6/5 397/6/5
f 406/2/5 397/2/5 405/2/5
f 407/6/5 398/6/5 406/6/5
f 408/6/5 400/6/5 399/6/5
f 409/2/5 402/2/5 401/2/5
f 409/6/5 400/6/5 408/6/5
f 409/2/5 401/2/5 400/2/5
f 410/2/5 402/2/5 409/2/5
f 411/2/5 402/2/5 410/2/5
f 414/2/5 405/2/5 404/2/5
f 414/2/5 404/2/5 403/2/5
f 415/2/5 405/2/5 414/2/5
f 416/6/5 398/6/5 407/6/5
f 417/2/5 388/2/5 398/2/5
f 417/6/5 398/6/5 416/6/5
f 418/3/5 385/3/5 384/3/5
f 418/2/5 388/2/5 417/2/5
f 418/2/5 384/2/5 388/2/5
f 419/3/5 385/3/5 418/3/5
f 420/3/5 385/3/5 419/3/5
f 421/2/5 389/2/5 385/2/5
f 421/3/5 385/3/5 420/3/5
f 421/2/5 399/2/5 389/2/5
f 422/6/5 408/6/5 399/6/5
f 422/2/5 399/2/5 421/2/5
f 423/6/5 408/6/5 422/6/5
f 424/2/5 411/2/5 410/2/5
f 424/2/5 412/2/5 411/2/5
f 425/2/5 412/2/5 424/2/5
f 427/2/5 417/2/5 416/2/5
f 427/2/5 416/2/5 415/2/5
f 427/2/5 419/2/5 418/2/5
f 427/2/5 415/2/5 414/2/5
f 427/2/5 414/2/5 413/2/5
f 427/2/5 418/2/5 417/2/5
f 428/3/5 420/3/5 419/3/5
f 428/2/5 419/2/5 427/2/5
f 429/2/5 426/2/5 425/2/5
f 429/3/5 420/3/5 428/3/5
f 429/2/5 425/2/5 424/2/5
f 429/2/5 421/2/5 420/2/5
f 429/2/5 423/2/5 422/2/5
f 429/2/5 422/2/5 421/2/5
f 429/2/5 424/2/5 423/2/5
f 430/2/5 426/2/5 429/2/5
f 431/2/5 429/2/5 428/2/5
f 432/2/5 429/2/5 431/2/5
f 433/3/5 432/3/5 431/3/5
f 434/3/5 432/3/5 433/3/5
f 436/2/5 434/2/5 433/2/5
f 437/2/5 434/2/5 436/2/5
f 440/2/5 436/2/5 435/2/5
f 441/2/5 438/2/5 437/2/5
f 443/2/5 440/2/5 439/2/5
f 444/3/5 437/3/5 436/3/5
f 444/2/5 440/2/5 443/2/5
f 444/2/5 436/2/5 440/2/5
f 445/2/5 442/2/5 441/2/5
f 445/3/5 437/3/5 444/3/5
f 445/2/5 441/2/5 437/2/5
f 446/2/5 442/2/5 445/2/5
f 447/2/6 448/2/6 449/2/6
f 449/2/6 448/2/6 450/2/6
f 451/2/6 452/2/6 455/2/6
f 455/2/6 452/2/6 456/2/6
f 453/2/6 454/2/6 457/2/6
f 457/2/6 454/2/6 458/2/6
f 455/3/6 456/3/6 459/3/6
f 459/3/6 456/3/6 460/3/6
f 457/3/6 458/3/6 461/3/6
f 461/3/6 458/3/6 462/3/6
f 459/2/6 460/2/6 464/2/6
f 464/2/6 460/2/6 465/2/6
f 461/2/6 462/2/6 466/2/6
f 466/2/6 462/2/6 467/2/6
f 463/2/6 464/2/6 470/2/6
f 470/2/6 464/2/6 471/2/6
f 467/2/6 468/2/6 472/2/6
f 472/2/6 468/2/6 473/2/6
f 470/2/6 471/2/6 476/2/6
f 469/2/6 470/2/6 476/2/6
f 476/2/6 471/2/6 477/2/6
f 473/2/6 474/2/6 480/2/6
f 472/2/6 473/2/6 480/2/6
f 480/2/6 474/2/6 481/2/6
f 476/2/6 477/2/6 484/2/6
f 475/2/6 476/2/6 484/2/6
f 484/2/6 477/2/6 485/2/6
f 485/2/6 477/2/6 486/2/6
f 477/3/6 478/3/6 487/3/6
f 486/2/6 477/2/6 487/2/6
f 487/3/6 478/3/6 488/3/6
f 479/3/6 480/3/6 489/3/6
f 481/2/6 482/2/6 490/2/6
f 489/3/6 480/3/6 490/3/6
f 480/2/6 481/2/6 490/2/6
f 490/2/6 482/2/6 491/2/6
f 491/2/6 482/2/6 492/2/6
f 492/2/6 482/2/6 493/2/6
f 483/2/6 484/2/6 496/2/6
f 484/2/6 485/2/6 496/2/6
f 486/2/6 487/2/6 497/2/6
f 490/2/6 491/2/6 498/2/6
f 493/2/6 494/2/6 499/2/6
f 492/2/6 493/2/6 499/2/6
f 495/2/6 496/2/6 502/2/6
f 485/6/6 486/6/6 503/6/6
f 496/2/6 485/2/6 503/2/6
f 502/2/6 496/2/6 503/2/6
f 486/2/6 497/2/6 504/2/6
f 503/6/6 486/6/6 504/6/6
f 504/2/6 497/2/6 505/2/6
f 498/2/6 491/2/6 508/2/6
f 491/6/6 492/6/6 509/6/6
f 508/2/6 491/2/6 509/2/6
f 499/2/6 500/2/6 510/2/6
f 509/6/6 492/6/6 510/6/6
f 492/2/6 499/2/6 510/2/6
f 510/2/6 500/2/6 511/2/6
f 501/2/6 502/2/6 513/2/6
f 505/2/6 506/2/6 513/2/6
f 502/2/6 503/2/6 513/2/6
f 503/2/6 504/2/6 513/2/6
f 504/2/6 505/2/6 513/2/6
f 513/2/6 506/2/6 514/2/6
f 511/2/6 512/2/6 515/2/6
f 508/2/6 509/2/6 515/2/6
f 510/2/6 511/2/6 515/2/6
f 507/2/6 508/2/6 515/2/6
f 509/2/6 510/2/6 515/2/6
f 515/2/6 512/2/6 516/2/6
f 517/2/6 518/2/6 522/2/6
f 522/2/6 518/2/6 523/2/6
f 519/2/6 520/2/6 524/2/6
f 524/2/6 520/2/6 525/2/6
f 522/2/6 523/2/6 527/2/6
f 521/2/6 522/2/6 527/2/6
f 525/2/6 526/2/6 528/2/6
f 524/2/6 525/2/6 528/2/6
f 521/2/6 527/2/6 529/2/6
f 529/2/6 527/2/6 530/2/6
f 528/2/6 526/2/6 531/2/6
f 531/2/6 526/2/6 532/2/6
f 533/5/6 534/5/6 535/5/6
f 535/5/6 534/5/6 536/5/6
f 535/3/6 536/3/6 537/3/6
f 537/3/6 536/3/6 538/3/6
f 537/2/6 538/2/6 540/2/6
f 540/2/6 538/2/6 541/2/6
f 540/2/6 541/2/6 543/2/6
f 541/2/6 542/2/6 543/2/6
f 539/2/6 540/2/6 543/2/6
f 543/2/6 542/2/6 544/2/6
f 543/3/6 544/3/6 545/3/6
f 545/3/6 544/3/6 546/3/6
f 546/3/6 544/3/6 547/3/6
f 547/3/6 544/3/6 548/3/6
f 546/2/6 547/2/6 550/2/6
f 550/2/6 547/2/6 551/2/6
f 549/3/6 550/3/6 553/3/6
f 551/3/6 552/3/6 553/3/6
f 550/3/6 551/3/6 553/3/6
f 553/3/6 552/3/6 554/3/6
f 553/2/6 554/2/6 555/2/6
f 555/2/6 554/2/6 556/2/6
f 556/2/6 554/2/6 557/2/6
f 557/2/6 554/2/6 558/2/6
f 556/3/6 557/3/6 559/3/6
f 559/3/6 557/3/6 560/3/6
f 559/2/6 560/2/6 561/2/6
f 561/2/6 560/2/6 562/2/6
f 561/3/6 562/3/6 563/3/6
f 563/3/6 562/3/6 564/3/6
f 563/2/6 564/2/6 565/2/6
f 565/2/6 564/2/6 566/2/6
f 567/3/6 568/3/6 569/3/6
f 569/3/6 568/3/6 570/3/6
f 571/2/6 572/2/6 573/2/6
f 573/2/6 572/2/6 574/2/6
